<svg id="svg" xmlns="http://www.w3.org/2000/svg" xmlns:xlink="http://www.w3.org/1999/xlink" width="400" height="400" viewBox="0, 0, 400,400" version="1.1"><g id="svgg"><path id="path0" d="M188.281 40.820 L 188.281 53.516 173.633 53.516 L 158.984 53.516 158.984 66.211 L 158.984 78.906 173.633 78.906 L 188.281 78.906 188.281 84.766 L 188.281 90.625 166.016 90.625 L 143.750 90.625 143.750 103.125 L 143.750 115.625 166.016 115.625 L 188.281 115.625 188.281 125.977 L 188.281 136.328 141.797 136.328 L 95.313 136.328 95.313 149.626 L 95.313 162.924 102.577 162.810 L 109.841 162.695 109.583 164.648 C 109.441 165.723,106.355 184.619,102.724 206.641 C 92.534 268.454,84.766 315.702,84.766 315.866 C 84.766 315.948,79.404 316.016,72.852 316.016 L 60.938 316.016 60.938 329.492 L 60.938 342.969 200.586 342.969 L 340.234 342.969 340.234 329.492 L 340.234 316.016 328.351 316.016 L 316.468 316.016 316.244 314.941 C 316.121 314.351,314.612 305.518,312.890 295.313 C 311.168 285.107,308.881 271.572,307.807 265.234 C 306.734 258.896,304.641 246.504,303.156 237.695 C 301.672 228.887,298.245 208.561,295.541 192.527 C 292.837 176.492,290.625 163.221,290.625 163.034 C 290.624 162.848,294.052 162.746,298.242 162.809 L 305.859 162.923 305.859 149.625 L 305.859 136.328 259.375 136.328 L 212.891 136.328 212.891 125.977 L 212.891 115.625 234.961 115.625 L 257.031 115.625 257.031 103.125 L 257.031 90.625 234.961 90.625 L 212.891 90.625 212.891 84.766 L 212.891 78.906 227.734 78.906 L 242.578 78.906 242.578 66.211 L 242.578 53.516 227.734 53.516 L 212.891 53.516 212.891 40.820 L 212.891 28.125 200.586 28.125 L 188.281 28.125 188.281 40.820 M264.356 170.020 C 265.773 178.440,276.779 243.216,278.709 254.492 C 279.445 258.789,281.381 270.215,283.013 279.883 C 284.644 289.551,286.673 301.504,287.521 306.445 C 288.368 311.387,289.062 315.562,289.062 315.723 C 289.062 315.884,249.248 316.016,200.586 316.016 C 151.924 316.016,112.110 315.972,112.112 315.918 C 112.113 315.864,116.068 292.266,120.900 263.477 C 125.732 234.687,131.455 200.498,133.618 187.500 C 135.781 174.502,137.622 163.647,137.709 163.379 C 137.834 162.991,150.740 162.891,200.511 162.891 L 263.156 162.891 264.356 170.020 M194.922 178.396 C 159.698 182.169,137.358 217.472,148.497 251.758 C 165.205 303.185,240.479 301.112,254.468 248.840 C 264.725 210.516,234.033 174.208,194.922 178.396 M182.576 188.380 C 184.121 190.846,175.111 198.994,169.158 200.513 C 164.314 201.749,163.854 199.578,168.018 195.126 C 173.231 189.554,181.044 185.933,182.576 188.380 M226.707 189.428 C 234.210 193.236,240.013 201.172,235.294 201.172 C 229.411 201.172,217.510 190.865,220.215 188.113 C 220.816 187.502,224.306 188.209,226.707 189.428 M203.264 198.193 C 212.893 202.217,210.047 216.389,199.609 216.389 C 189.657 216.389,186.161 203.072,194.963 198.686 C 197.336 197.503,201.080 197.281,203.264 198.193 M167.773 218.401 C 171.275 219.359,173.906 223.526,173.906 228.114 C 173.906 241.257,158.604 242.099,157.890 228.995 C 157.494 221.726,162.056 216.836,167.773 218.401 M238.274 219.137 C 244.628 222.378,244.586 234.283,238.210 237.536 C 229.432 242.015,221.968 229.583,228.385 221.170 C 230.424 218.496,235.124 217.530,238.274 219.137 M203.205 235.763 C 208.540 237.581,211.436 243.541,209.563 248.850 C 206.996 256.124,197.714 257.800,192.445 251.940 C 185.572 244.296,193.457 232.442,203.205 235.763 M150.504 242.161 C 153.138 245.291,156.525 257.114,155.049 258.026 C 153.201 259.168,148.828 249.103,148.828 243.709 C 148.828 240.721,149.089 240.480,150.504 242.161 M251.839 244.238 C 251.215 252.014,244.568 263.000,244.537 256.306 C 244.517 251.797,249.343 241.406,251.458 241.406 C 251.973 241.406,252.031 241.839,251.839 244.238 M178.223 261.251 C 182.955 263.581,186.778 268.769,186.166 272.030 C 185.256 276.881,178.323 276.384,172.485 271.048 C 164.803 264.027,169.069 256.745,178.223 261.251 M228.547 260.758 C 232.037 262.563,231.412 267.520,227.210 271.360 C 221.887 276.225,215.039 277.215,213.069 273.404 C 209.746 266.979,221.697 257.216,228.547 260.758 M209.277 286.146 C 211.881 286.955,209.711 287.569,203.451 287.796 C 194.324 288.126,188.937 287.050,194.184 285.945 C 196.059 285.550,207.864 285.708,209.277 286.146 " stroke="none" fill="#000000" fill-rule="evenodd"></path><path id="path1" d="M0.000 200.000 L 0.000 400.000 200.000 400.000 L 400.000 400.000 400.000 200.000 L 400.000 0.000 200.000 0.000 L 0.000 0.000 0.000 200.000 M212.891 40.820 L 212.891 53.516 227.734 53.516 L 242.578 53.516 242.578 66.211 L 242.578 78.906 227.734 78.906 L 212.891 78.906 212.891 84.766 L 212.891 90.625 234.961 90.625 L 257.031 90.625 257.031 103.125 L 257.031 115.625 234.961 115.625 L 212.891 115.625 212.891 125.977 L 212.891 136.328 259.375 136.328 L 305.859 136.328 305.859 149.625 L 305.859 162.923 298.242 162.809 C 294.052 162.746,290.624 162.848,290.625 163.034 C 290.625 163.221,292.837 176.492,295.541 192.527 C 298.245 208.561,301.672 228.887,303.156 237.695 C 304.641 246.504,306.734 258.896,307.807 265.234 C 308.881 271.572,311.168 285.107,312.890 295.313 C 314.612 305.518,316.121 314.351,316.244 314.941 L 316.468 316.016 328.351 316.016 L 340.234 316.016 340.234 329.492 L 340.234 342.969 200.586 342.969 L 60.938 342.969 60.938 329.492 L 60.938 316.016 72.852 316.016 C 79.404 316.016,84.766 315.948,84.766 315.866 C 84.766 315.702,92.534 268.454,102.724 206.641 C 106.355 184.619,109.441 165.723,109.583 164.648 L 109.841 162.695 102.577 162.810 L 95.313 162.924 95.313 149.626 L 95.313 136.328 141.797 136.328 L 188.281 136.328 188.281 125.977 L 188.281 115.625 166.016 115.625 L 143.750 115.625 143.750 103.125 L 143.750 90.625 166.016 90.625 L 188.281 90.625 188.281 84.766 L 188.281 78.906 173.633 78.906 L 158.984 78.906 158.984 66.211 L 158.984 53.516 173.633 53.516 L 188.281 53.516 188.281 40.820 L 188.281 28.125 200.586 28.125 L 212.891 28.125 212.891 40.820 M137.709 163.379 C 137.622 163.647,135.781 174.502,133.618 187.500 C 131.455 200.498,125.732 234.687,120.900 263.477 C 116.068 292.266,112.113 315.864,112.112 315.918 C 112.110 315.972,151.924 316.016,200.586 316.016 C 249.248 316.016,289.062 315.884,289.062 315.723 C 289.062 315.562,288.368 311.387,287.521 306.445 C 286.673 301.504,284.644 289.551,283.013 279.883 C 281.381 270.215,279.445 258.789,278.709 254.492 C 276.779 243.216,265.773 178.440,264.356 170.020 L 263.156 162.891 200.511 162.891 C 150.740 162.891,137.834 162.991,137.709 163.379 M207.504 178.557 C 261.592 184.366,274.794 259.147,226.056 283.652 C 196.007 298.760,158.796 283.459,148.497 251.758 C 145.371 242.135,144.790 228.320,147.143 219.531 C 154.333 192.675,179.554 175.555,207.504 178.557 M177.550 188.320 C 171.607 190.759,164.425 197.719,165.354 200.140 C 166.597 203.377,179.102 196.423,182.057 190.853 C 183.677 187.799,181.627 186.648,177.550 188.320 M220.215 188.113 C 217.510 190.865,229.411 201.172,235.294 201.172 C 240.013 201.172,234.210 193.236,226.707 189.428 C 224.306 188.209,220.816 187.502,220.215 188.113 M194.963 198.686 C 191.486 200.418,189.522 204.040,189.975 207.883 C 191.365 219.655,209.151 218.864,209.151 207.031 C 209.151 199.806,201.612 195.372,194.963 198.686 M163.083 218.697 C 159.448 220.349,157.616 223.980,157.890 228.995 C 158.604 242.099,173.906 241.257,173.906 228.114 C 173.906 221.146,168.344 216.307,163.083 218.697 M231.009 219.107 C 224.324 222.143,224.345 234.156,231.041 237.589 C 236.900 240.592,242.934 235.890,242.934 228.320 C 242.934 220.719,237.206 216.293,231.009 219.107 M197.461 235.522 C 193.246 236.548,189.872 240.783,189.852 245.072 C 189.801 256.456,205.797 259.522,209.563 248.850 C 212.252 241.228,205.330 233.606,197.461 235.522 M148.828 243.709 C 148.828 249.103,153.201 259.168,155.049 258.026 C 156.978 256.834,151.524 241.016,149.184 241.016 C 148.988 241.016,148.828 242.228,148.828 243.709 M249.774 242.676 C 247.491 245.369,244.523 253.094,244.537 256.306 C 244.568 263.000,251.215 252.014,251.839 244.238 C 252.104 240.927,251.588 240.536,249.774 242.676 M170.610 260.355 C 167.190 262.282,168.009 266.957,172.485 271.048 C 178.323 276.384,185.256 276.881,186.166 272.030 C 187.272 266.134,175.729 257.470,170.610 260.355 M222.666 260.380 C 214.111 262.728,209.163 272.381,215.076 275.187 C 220.213 277.624,230.806 270.850,230.851 265.098 C 230.881 261.198,227.269 259.116,222.666 260.380 M194.184 285.945 C 188.937 287.050,194.324 288.126,203.451 287.796 C 208.610 287.609,210.156 287.362,210.156 286.723 C 210.156 285.849,197.554 285.235,194.184 285.945 " stroke="none" fill="#00000000" fill-rule="evenodd"></path></g></svg>